<svg xmlns="http://www.w3.org/2000/svg" version="1.1" xmlns:xlink="http://www.w3.org/1999/xlink" stroke-linecap="round" stroke-linejoin="round" stroke-width="0" fill-rule="evenodd" width="13.89848mm" height="5.92328mm" viewBox="81650.76 -104111.64 13898.48 5923.28" id="logo-F.Cu">
  <defs>
    <rect x="-173.99" y="-574.04" width="347.98" height="1148.08" rx="173.99" ry="173.99" id="logo-F.Cu_pad-11"/>
    <rect x="-574.04" y="-173.99" width="1148.08" height="347.98" rx="173.99" ry="173.99" id="logo-F.Cu_pad-12"/>
    <circle cx="0" cy="0" r="400" id="logo-F.Cu_pad-13"/>
  </defs>
  <g transform="translate(0,-202300) scale(1,-1)" fill="currentColor" stroke="currentColor">
    <use xlink:href="#logo-F.Cu_pad-11" x="85910.34" y="-98762.4"/>
    <use xlink:href="#logo-F.Cu_pad-11" x="85260.1" y="-98762.4"/>
    <use xlink:href="#logo-F.Cu_pad-11" x="84612.4" y="-98762.4"/>
    <use xlink:href="#logo-F.Cu_pad-11" x="83964.7" y="-98762.4"/>
    <use xlink:href="#logo-F.Cu_pad-11" x="83314.46" y="-98762.4"/>
    <use xlink:href="#logo-F.Cu_pad-12" x="82224.8" y="-99852.06"/>
    <use xlink:href="#logo-F.Cu_pad-12" x="82224.8" y="-100502.3"/>
    <use xlink:href="#logo-F.Cu_pad-12" x="82224.8" y="-101150"/>
    <use xlink:href="#logo-F.Cu_pad-12" x="82224.8" y="-101797.7"/>
    <use xlink:href="#logo-F.Cu_pad-12" x="82224.8" y="-102447.94"/>
    <use xlink:href="#logo-F.Cu_pad-11" x="83314.46" y="-103537.6"/>
    <use xlink:href="#logo-F.Cu_pad-11" x="83964.7" y="-103537.6"/>
    <use xlink:href="#logo-F.Cu_pad-11" x="84612.4" y="-103537.6"/>
    <use xlink:href="#logo-F.Cu_pad-11" x="85260.1" y="-103537.6"/>
    <use xlink:href="#logo-F.Cu_pad-11" x="85910.34" y="-103537.6"/>
    <use xlink:href="#logo-F.Cu_pad-12" x="87000" y="-102447.94"/>
    <use xlink:href="#logo-F.Cu_pad-12" x="87000" y="-101797.7"/>
    <use xlink:href="#logo-F.Cu_pad-12" x="87000" y="-101150"/>
    <use xlink:href="#logo-F.Cu_pad-12" x="87000" y="-100502.3"/>
    <use xlink:href="#logo-F.Cu_pad-12" x="87000" y="-99852.06"/>
    <path d="M 85977.103 -99650.722 85991.664 -99652.882 86005.943 -99656.459 86019.803 -99661.418 86033.11 -99667.712 86045.736 -99675.28 86057.559 -99684.048 86068.466 -99693.934 86078.352 -99704.841 86087.12 -99716.664 86094.688 -99729.29 86100.982 -99742.597 86105.941 -99756.457 86109.518 -99770.736 86111.678 -99785.297 86112.4 -99800 86112.4 -102500 86111.678 -102514.703 86109.518 -102529.264 86105.941 -102543.543 86100.982 -102557.403 86094.688 -102570.71 86087.12 -102583.336 86078.352 -102595.159 86068.466 -102606.066 86057.559 -102615.952 86045.736 -102624.72 86033.11 -102632.288 86019.803 -102638.582 86005.943 -102643.541 85991.664 -102647.118 85977.103 -102649.278 85962.4 -102650 83262.4 -102650 83247.697 -102649.278 83233.136 -102647.118 83218.857 -102643.541 83204.997 -102638.582 83191.69 -102632.288 83179.064 -102624.72 83167.241 -102615.952 83156.334 -102606.066 83146.448 -102595.159 83137.68 -102583.336 83130.112 -102570.71 83123.818 -102557.403 83118.859 -102543.543 83115.282 -102529.264 83113.122 -102514.703 83112.4 -102500 83112.4 -99800 83113.122 -99785.297 83115.282 -99770.736 83118.859 -99756.457 83123.818 -99742.597 83130.112 -99729.29 83137.68 -99716.664 83146.448 -99704.841 83156.334 -99693.934 83167.241 -99684.048 83179.064 -99675.28 83191.69 -99667.712 83204.997 -99661.418 83218.857 -99656.459 83233.136 -99652.882 83247.697 -99650.722 83262.4 -99650 85962.4 -99650 85977.103 -99650.722 85977.103 -99650.722"/>
    <use xlink:href="#logo-F.Cu_pad-11" x="93885.54" y="-98762.4"/>
    <use xlink:href="#logo-F.Cu_pad-11" x="93235.3" y="-98762.4"/>
    <use xlink:href="#logo-F.Cu_pad-11" x="92587.6" y="-98762.4"/>
    <use xlink:href="#logo-F.Cu_pad-11" x="91939.9" y="-98762.4"/>
    <use xlink:href="#logo-F.Cu_pad-11" x="91289.66" y="-98762.4"/>
    <use xlink:href="#logo-F.Cu_pad-12" x="90200" y="-99852.06"/>
    <use xlink:href="#logo-F.Cu_pad-12" x="90200" y="-100502.3"/>
    <use xlink:href="#logo-F.Cu_pad-12" x="90200" y="-101150"/>
    <use xlink:href="#logo-F.Cu_pad-12" x="90200" y="-101797.7"/>
    <use xlink:href="#logo-F.Cu_pad-12" x="90200" y="-102447.94"/>
    <use xlink:href="#logo-F.Cu_pad-11" x="91289.66" y="-103537.6"/>
    <use xlink:href="#logo-F.Cu_pad-11" x="91939.9" y="-103537.6"/>
    <use xlink:href="#logo-F.Cu_pad-11" x="92587.6" y="-103537.6"/>
    <use xlink:href="#logo-F.Cu_pad-11" x="93235.3" y="-103537.6"/>
    <use xlink:href="#logo-F.Cu_pad-11" x="93885.54" y="-103537.6"/>
    <use xlink:href="#logo-F.Cu_pad-12" x="94975.2" y="-102447.94"/>
    <use xlink:href="#logo-F.Cu_pad-12" x="94975.2" y="-101797.7"/>
    <use xlink:href="#logo-F.Cu_pad-12" x="94975.2" y="-101150"/>
    <use xlink:href="#logo-F.Cu_pad-12" x="94975.2" y="-100502.3"/>
    <use xlink:href="#logo-F.Cu_pad-12" x="94975.2" y="-99852.06"/>
    <path d="M 93952.303 -99650.722 93966.864 -99652.882 93981.143 -99656.459 93995.003 -99661.418 94008.31 -99667.712 94020.936 -99675.28 94032.759 -99684.048 94043.666 -99693.934 94053.552 -99704.841 94062.32 -99716.664 94069.888 -99729.29 94076.182 -99742.597 94081.141 -99756.457 94084.718 -99770.736 94086.878 -99785.297 94087.6 -99800 94087.6 -102500 94086.878 -102514.703 94084.718 -102529.264 94081.141 -102543.543 94076.182 -102557.403 94069.888 -102570.71 94062.32 -102583.336 94053.552 -102595.159 94043.666 -102606.066 94032.759 -102615.952 94020.936 -102624.72 94008.31 -102632.288 93995.003 -102638.582 93981.143 -102643.541 93966.864 -102647.118 93952.303 -102649.278 93937.6 -102650 91237.6 -102650 91222.897 -102649.278 91208.336 -102647.118 91194.057 -102643.541 91180.197 -102638.582 91166.89 -102632.288 91154.264 -102624.72 91142.441 -102615.952 91131.534 -102606.066 91121.648 -102595.159 91112.88 -102583.336 91105.312 -102570.71 91099.018 -102557.403 91094.059 -102543.543 91090.482 -102529.264 91088.322 -102514.703 91087.6 -102500 91087.6 -99800 91088.322 -99785.297 91090.482 -99770.736 91094.059 -99756.457 91099.018 -99742.597 91105.312 -99729.29 91112.88 -99716.664 91121.648 -99704.841 91131.534 -99693.934 91142.441 -99684.048 91154.264 -99675.28 91166.89 -99667.712 91180.197 -99661.418 91194.057 -99656.459 91208.336 -99652.882 91222.897 -99650.722 91237.6 -99650 93937.6 -99650 93952.303 -99650.722 93952.303 -99650.722"/>
    <use xlink:href="#logo-F.Cu_pad-13" x="88000" y="-102450"/>
    <use xlink:href="#logo-F.Cu_pad-13" x="89200" y="-101170"/>
    <use xlink:href="#logo-F.Cu_pad-13" x="88550" y="-101800"/>
    <use xlink:href="#logo-F.Cu_pad-13" x="88550" y="-100500"/>
    <use xlink:href="#logo-F.Cu_pad-13" x="88000" y="-99850"/>
    <path d="M 89912.4 -102447.94 88002.06 -102447.94" fill="none" stroke-width="150"/>
    <path d="M 88002.06 -102447.94 88000 -102450" fill="none" stroke-width="250"/>
    <path d="M 87000 -102447.94 87947.94 -102447.94 M 88550 -101800 89910.1 -101800" fill="none" stroke-width="150"/>
    <path d="M 89910.1 -101800 89912.4 -101797.7" fill="none" stroke-width="250"/>
    <path d="M 89912.4 -101150 89220 -101150" fill="none" stroke-width="150"/>
    <path d="M 89220 -101150 89200 -101170 M 88950 -101150 89150 -101150 89200 -101200" fill="none" stroke-width="250"/>
    <path d="M 87000 -101797.7 88397.7 -101797.7" fill="none" stroke-width="150"/>
    <path d="M 88397.7 -101797.7 88400 -101800" fill="none" stroke-width="250"/>
    <path d="M 87000 -101150 88950 -101150 M 89912.4 -100502.3 88502.3 -100502.3" fill="none" stroke-width="150"/>
    <path d="M 88502.3 -100502.3 88500 -100500" fill="none" stroke-width="250"/>
    <path d="M 87000 -100502.3 88497.7 -100502.3" fill="none" stroke-width="150"/>
    <path d="M 88497.7 -100502.3 88500 -100500" fill="none" stroke-width="250"/>
    <path d="M 89912.4 -99852.06 88002.06 -99852.06" fill="none" stroke-width="150"/>
    <path d="M 88002.06 -99852.06 88000 -99850" fill="none" stroke-width="250"/>
    <path d="M 87000 -99852.06 87947.94 -99852.06" fill="none" stroke-width="150"/>
    <path d="M 87947.94 -99852.06 88000 -99800" fill="none" stroke-width="250"/>
  </g>
</svg>
