<?xml version="1.0" encoding="UTF-8" standalone="no"?>
<svg
   xmlns:dc="http://purl.org/dc/elements/1.1/"
   xmlns:cc="http://creativecommons.org/ns#"
   xmlns:rdf="http://www.w3.org/1999/02/22-rdf-syntax-ns#"
   xmlns:svg="http://www.w3.org/2000/svg"
   xmlns="http://www.w3.org/2000/svg"
   xmlns:xlink="http://www.w3.org/1999/xlink"
   xmlns:sodipodi="http://sodipodi.sourceforge.net/DTD/sodipodi-0.dtd"
   xmlns:inkscape="http://www.inkscape.org/namespaces/inkscape"
   version="1.1"
   width="8.1844444mm"
   height="8.1844444mm"
   viewBox="78738.36 -105261.64 8184.4448 8184.4448"
   id="logo-F.Cu"
   inkscape:version="0.91 r13725"
   sodipodi:docname="logo5.svg"
   style="fill-rule:evenodd;stroke-width:0;stroke-linecap:round;stroke-linejoin:round">
  <metadata
     id="metadata53">
    <rdf:RDF>
      <cc:Work
         rdf:about="">
        <dc:format>image/svg+xml</dc:format>
        <dc:type
           rdf:resource="http://purl.org/dc/dcmitype/StillImage" />
        <dc:title></dc:title>
      </cc:Work>
    </rdf:RDF>
  </metadata>
  <sodipodi:namedview
     pagecolor="#ffffff"
     bordercolor="#666666"
     borderopacity="1"
     objecttolerance="10"
     gridtolerance="10"
     guidetolerance="10"
     inkscape:pageopacity="0"
     inkscape:pageshadow="2"
     inkscape:window-width="2222"
     inkscape:window-height="1372"
     id="namedview51"
     showgrid="false"
     fit-margin-top="0"
     fit-margin-left="0"
     fit-margin-right="0"
     fit-margin-bottom="0"
     inkscape:zoom="31.804309"
     inkscape:cx="11.591361"
     inkscape:cy="8.6914209"
     inkscape:window-x="466"
     inkscape:window-y="422"
     inkscape:window-maximized="0"
     inkscape:current-layer="layer2" />
  <defs
     id="defs3">
    <rect
       x="-173.99001"
       y="-574.03998"
       width="347.98001"
       height="1148.08"
       rx="173.99001"
       ry="173.99001"
       id="logo-F.Cu_pad-11" />
    <rect
       x="-574.03998"
       y="-173.99001"
       width="1148.08"
       height="347.98001"
       rx="173.99001"
       ry="173.99001"
       id="logo-F.Cu_pad-12" />
  </defs>
  <g
     inkscape:groupmode="layer"
     id="layer2"
     inkscape:label="background"
     transform="translate(340.35499,1513.2847)">
    <circle
       style="fill:#000000;fill-opacity:1;stroke:#ffffff;stroke-width:0;stroke-opacity:1"
       id="path4261"
       cx="82490.227"
       cy="-102682.7"
       r="4092.2222" />
  </g>
  <g
     inkscape:groupmode="layer"
     id="layer1"
     inkscape:label="foreground"
     transform="translate(340.35499,1513.2847)">
    <g
       style="fill:#ffffff;stroke:currentColor"
       transform="matrix(1.0000008,0,0,-1.0000008,791.87351,-205019.33)"
       id="g7">
      <use
         height="100%"
         width="100%"
         xlink:href="#logo-F.Cu_pad-11"
         x="82997.938"
         y="-99912.398"
         id="use9"
         style="fill:#ffffff" />
      <use
         height="100%"
         width="100%"
         xlink:href="#logo-F.Cu_pad-11"
         x="82347.703"
         y="-99912.398"
         id="use11"
         style="fill:#ffffff" />
      <use
         height="100%"
         width="100%"
         xlink:href="#logo-F.Cu_pad-11"
         x="81700"
         y="-99912.398"
         id="use13"
         style="fill:#ffffff" />
      <use
         height="100%"
         width="100%"
         xlink:href="#logo-F.Cu_pad-11"
         x="81052.297"
         y="-99912.398"
         id="use15"
         style="fill:#ffffff" />
      <use
         height="100%"
         width="100%"
         xlink:href="#logo-F.Cu_pad-11"
         x="80402.062"
         y="-99912.398"
         id="use17"
         style="fill:#ffffff" />
      <use
         height="100%"
         width="100%"
         xlink:href="#logo-F.Cu_pad-12"
         x="79312.398"
         y="-101002.06"
         id="use19"
         style="fill:#ffffff" />
      <use
         height="100%"
         width="100%"
         xlink:href="#logo-F.Cu_pad-12"
         x="79312.398"
         y="-101652.3"
         id="use21"
         style="fill:#ffffff" />
      <use
         height="100%"
         width="100%"
         xlink:href="#logo-F.Cu_pad-12"
         x="79312.398"
         y="-102300"
         id="use23"
         style="fill:#ffffff" />
      <use
         height="100%"
         width="100%"
         xlink:href="#logo-F.Cu_pad-12"
         x="79312.398"
         y="-102947.7"
         id="use25"
         style="fill:#ffffff" />
      <use
         height="100%"
         width="100%"
         xlink:href="#logo-F.Cu_pad-12"
         x="79312.398"
         y="-103597.94"
         id="use27"
         style="fill:#ffffff" />
      <use
         height="100%"
         width="100%"
         xlink:href="#logo-F.Cu_pad-11"
         x="80402.062"
         y="-104687.6"
         id="use29"
         style="fill:#ffffff" />
      <use
         height="100%"
         width="100%"
         xlink:href="#logo-F.Cu_pad-11"
         x="81052.297"
         y="-104687.6"
         id="use31"
         style="fill:#ffffff" />
      <use
         height="100%"
         width="100%"
         xlink:href="#logo-F.Cu_pad-11"
         x="81700"
         y="-104687.6"
         id="use33"
         style="fill:#ffffff" />
      <use
         height="100%"
         width="100%"
         xlink:href="#logo-F.Cu_pad-11"
         x="82347.703"
         y="-104687.6"
         id="use35"
         style="fill:#ffffff" />
      <use
         height="100%"
         width="100%"
         xlink:href="#logo-F.Cu_pad-11"
         x="82997.938"
         y="-104687.6"
         id="use37"
         style="fill:#ffffff" />
      <use
         height="100%"
         width="100%"
         xlink:href="#logo-F.Cu_pad-12"
         x="84087.602"
         y="-103597.94"
         id="use39"
         style="fill:#ffffff" />
      <use
         height="100%"
         width="100%"
         xlink:href="#logo-F.Cu_pad-12"
         x="84087.602"
         y="-102947.7"
         id="use41"
         style="fill:#ffffff" />
      <use
         height="100%"
         width="100%"
         xlink:href="#logo-F.Cu_pad-12"
         x="84087.602"
         y="-102300"
         id="use43"
         style="fill:#ffffff" />
      <use
         height="100%"
         width="100%"
         xlink:href="#logo-F.Cu_pad-12"
         x="84087.602"
         y="-101652.3"
         id="use45"
         style="fill:#ffffff" />
      <use
         height="100%"
         width="100%"
         xlink:href="#logo-F.Cu_pad-12"
         x="84087.602"
         y="-101002.06"
         id="use47"
         style="fill:#ffffff" />
      <path
         inkscape:connector-curvature="0"
         d="m 83064.703,-100800.72 14.561,-2.16 14.279,-3.58 13.86,-4.96 13.307,-6.29 12.626,-7.57 11.823,-8.77 10.907,-9.88 9.886,-10.91 8.768,-11.82 7.568,-12.63 6.294,-13.31 4.959,-13.86 3.577,-14.28 2.16,-14.56 0.722,-14.7 0,-2700 -0.722,-14.7 -2.16,-14.56 -3.577,-14.28 -4.959,-13.86 -6.294,-13.31 -7.568,-12.63 -8.768,-11.82 -9.886,-10.91 -10.907,-9.88 -11.823,-8.77 -12.626,-7.57 -13.307,-6.29 -13.86,-4.96 -14.279,-3.58 -14.561,-2.16 -14.703,-0.72 -2700,0 -14.703,0.72 -14.561,2.16 -14.279,3.58 -13.86,4.96 -13.307,6.29 -12.626,7.57 -11.823,8.77 -10.907,9.88 -9.886,10.91 -8.768,11.82 -7.568,12.63 -6.294,13.31 -4.959,13.86 -3.577,14.28 -2.16,14.56 -0.722,14.7 0,2700 0.722,14.7 2.16,14.56 3.577,14.28 4.959,13.86 6.294,13.31 7.568,12.63 8.768,11.82 9.886,10.91 10.907,9.88 11.823,8.77 12.626,7.57 13.307,6.29 13.86,4.96 14.279,3.58 14.561,2.16 14.703,0.72 2700,0 14.703,-0.72 0,0"
         id="path49"
         style="fill:#ffffff" />
    </g>
  </g>
</svg>
