<?xml version="1.0" encoding="UTF-8" standalone="no"?>
<svg
   xmlns:dc="http://purl.org/dc/elements/1.1/"
   xmlns:cc="http://creativecommons.org/ns#"
   xmlns:rdf="http://www.w3.org/1999/02/22-rdf-syntax-ns#"
   xmlns:svg="http://www.w3.org/2000/svg"
   xmlns="http://www.w3.org/2000/svg"
   xmlns:xlink="http://www.w3.org/1999/xlink"
   xmlns:sodipodi="http://sodipodi.sourceforge.net/DTD/sodipodi-0.dtd"
   xmlns:inkscape="http://www.inkscape.org/namespaces/inkscape"
   version="1.1"
   width="12.135555mm"
   height="12.135555mm"
   viewBox="77325 -106675 12135.555 12135.555"
   id="logo-F.Cu"
   inkscape:version="0.91 r13725"
   sodipodi:docname="logo6.svg"
   style="fill-rule:evenodd;stroke-width:0;stroke-linecap:round;stroke-linejoin:round">
  <metadata
     id="metadata72">
    <rdf:RDF>
      <cc:Work
         rdf:about="">
        <dc:format>image/svg+xml</dc:format>
        <dc:type
           rdf:resource="http://purl.org/dc/dcmitype/StillImage" />
        <dc:title></dc:title>
      </cc:Work>
    </rdf:RDF>
  </metadata>
  <sodipodi:namedview
     pagecolor="#ffffff"
     bordercolor="#666666"
     borderopacity="1"
     objecttolerance="10"
     gridtolerance="10"
     guidetolerance="10"
     inkscape:pageopacity="0"
     inkscape:pageshadow="2"
     inkscape:window-width="2038"
     inkscape:window-height="1183"
     id="namedview70"
     showgrid="false"
     fit-margin-top="0"
     fit-margin-left="0"
     fit-margin-right="0"
     fit-margin-bottom="0"
     inkscape:zoom="15.223873"
     inkscape:cx="16.142373"
     inkscape:cy="21.532251"
     inkscape:window-x="1122"
     inkscape:window-y="539"
     inkscape:window-maximized="0"
     inkscape:current-layer="layer2" />
  <defs
     id="defs3">
    <rect
       x="-173.99001"
       y="-574.03998"
       width="347.98001"
       height="1148.08"
       rx="173.99001"
       ry="173.99001"
       id="logo-F.Cu_pad-11" />
    <rect
       x="-574.03998"
       y="-173.99001"
       width="1148.08"
       height="347.98001"
       rx="173.99001"
       ry="173.99001"
       id="logo-F.Cu_pad-12" />
    <circle
       cx="0"
       cy="0"
       r="375"
       id="logo-F.Cu_pad-13" />
  </defs>
  <g
     inkscape:groupmode="layer"
     id="layer2"
     inkscape:label="background"
     transform="translate(11855.59,8411.9341)">
    <circle
       style="fill:#000000;fill-opacity:1;stroke:#ffffff;stroke-width:0;stroke-opacity:1"
       id="path4311"
       cx="71537.188"
       cy="-109019.16"
       r="6067.7778" />
  </g>
  <g
     inkscape:groupmode="layer"
     id="layer1"
     inkscape:label="foreground"
     transform="translate(11855.59,8411.9341)" />
  <g
     transform="matrix(1.0000008,0,0,-1.0000008,1603.9363,-202936.03)"
     id="g8"
     style="fill:#ffffff;stroke:currentColor">
    <use
       height="100%"
       width="100%"
       xlink:href="#logo-F.Cu_pad-11"
       x="82997.938"
       y="-99912.398"
       id="use10"
       style="fill:#ffffff;fill-opacity:1;stroke:#ffffff;stroke-opacity:1" />
    <use
       height="100%"
       width="100%"
       xlink:href="#logo-F.Cu_pad-11"
       x="82347.703"
       y="-99912.398"
       id="use12"
       style="fill:#ffffff;fill-opacity:1;stroke:#ffffff;stroke-opacity:1" />
    <use
       height="100%"
       width="100%"
       xlink:href="#logo-F.Cu_pad-11"
       x="81700"
       y="-99912.398"
       id="use14"
       style="fill:#ffffff;fill-opacity:1;stroke:#ffffff;stroke-opacity:1" />
    <use
       height="100%"
       width="100%"
       xlink:href="#logo-F.Cu_pad-11"
       x="81052.297"
       y="-99912.398"
       id="use16"
       style="fill:#ffffff;fill-opacity:1;stroke:#ffffff;stroke-opacity:1" />
    <use
       height="100%"
       width="100%"
       xlink:href="#logo-F.Cu_pad-11"
       x="80402.062"
       y="-99912.398"
       id="use18"
       style="fill:#ffffff;fill-opacity:1;stroke:#ffffff;stroke-opacity:1" />
    <use
       height="100%"
       width="100%"
       xlink:href="#logo-F.Cu_pad-12"
       x="79312.398"
       y="-101002.06"
       id="use20"
       style="fill:#ffffff;fill-opacity:1;stroke:#ffffff;stroke-opacity:1" />
    <use
       height="100%"
       width="100%"
       xlink:href="#logo-F.Cu_pad-12"
       x="79312.398"
       y="-101652.3"
       id="use22"
       style="fill:#ffffff;fill-opacity:1;stroke:#ffffff;stroke-opacity:1" />
    <use
       height="100%"
       width="100%"
       xlink:href="#logo-F.Cu_pad-12"
       x="79312.398"
       y="-102300"
       id="use24"
       style="fill:#ffffff;fill-opacity:1;stroke:#ffffff;stroke-opacity:1" />
    <use
       height="100%"
       width="100%"
       xlink:href="#logo-F.Cu_pad-12"
       x="79312.398"
       y="-102947.7"
       id="use26"
       style="fill:#ffffff;fill-opacity:1;stroke:#ffffff;stroke-opacity:1" />
    <use
       height="100%"
       width="100%"
       xlink:href="#logo-F.Cu_pad-12"
       x="79312.398"
       y="-103597.94"
       id="use28"
       style="fill:#ffffff;fill-opacity:1;stroke:#ffffff;stroke-opacity:1" />
    <use
       height="100%"
       width="100%"
       xlink:href="#logo-F.Cu_pad-11"
       x="80402.062"
       y="-104687.6"
       id="use30"
       style="fill:#ffffff;fill-opacity:1;stroke:#ffffff;stroke-opacity:1" />
    <use
       height="100%"
       width="100%"
       xlink:href="#logo-F.Cu_pad-11"
       x="81052.297"
       y="-104687.6"
       id="use32"
       style="fill:#ffffff;fill-opacity:1;stroke:#ffffff;stroke-opacity:1" />
    <use
       height="100%"
       width="100%"
       xlink:href="#logo-F.Cu_pad-11"
       x="81700"
       y="-104687.6"
       id="use34"
       style="fill:#ffffff;fill-opacity:1;stroke:#ffffff;stroke-opacity:1" />
    <use
       height="100%"
       width="100%"
       xlink:href="#logo-F.Cu_pad-11"
       x="82347.703"
       y="-104687.6"
       id="use36"
       style="fill:#ffffff;fill-opacity:1;stroke:#ffffff;stroke-opacity:1" />
    <use
       height="100%"
       width="100%"
       xlink:href="#logo-F.Cu_pad-11"
       x="82997.938"
       y="-104687.6"
       id="use38"
       style="fill:#ffffff;fill-opacity:1;stroke:#ffffff;stroke-opacity:1" />
    <use
       height="100%"
       width="100%"
       xlink:href="#logo-F.Cu_pad-12"
       x="84087.602"
       y="-103597.94"
       id="use40"
       style="fill:#ffffff;fill-opacity:1;stroke:#ffffff;stroke-opacity:1" />
    <use
       height="100%"
       width="100%"
       xlink:href="#logo-F.Cu_pad-12"
       x="84087.602"
       y="-102947.7"
       id="use42"
       style="fill:#ffffff;fill-opacity:1;stroke:#ffffff;stroke-opacity:1" />
    <use
       height="100%"
       width="100%"
       xlink:href="#logo-F.Cu_pad-12"
       x="84087.602"
       y="-102300"
       id="use44"
       style="fill:#ffffff;fill-opacity:1;stroke:#ffffff;stroke-opacity:1" />
    <use
       height="100%"
       width="100%"
       xlink:href="#logo-F.Cu_pad-12"
       x="84087.602"
       y="-101652.3"
       id="use46"
       style="fill:#ffffff;fill-opacity:1;stroke:#ffffff;stroke-opacity:1" />
    <use
       height="100%"
       width="100%"
       xlink:href="#logo-F.Cu_pad-12"
       x="84087.602"
       y="-101002.06"
       id="use48"
       style="fill:#ffffff;fill-opacity:1;stroke:#ffffff;stroke-opacity:1" />
    <path
       inkscape:connector-curvature="0"
       d="m 83064.703,-100800.72 14.561,-2.16 14.279,-3.58 13.86,-4.96 13.307,-6.29 12.626,-7.57 11.823,-8.77 10.907,-9.88 9.886,-10.91 8.768,-11.82 7.568,-12.63 6.294,-13.31 4.959,-13.86 3.577,-14.28 2.16,-14.56 0.722,-14.7 0,-2700 -0.722,-14.7 -2.16,-14.56 -3.577,-14.28 -4.959,-13.86 -6.294,-13.31 -7.568,-12.63 -8.768,-11.82 -9.886,-10.91 -10.907,-9.88 -11.823,-8.77 -12.626,-7.57 -13.307,-6.29 -13.86,-4.96 -14.279,-3.58 -14.561,-2.16 -14.703,-0.72 -2700,0 -14.703,0.72 -14.561,2.16 -14.279,3.58 -13.86,4.96 -13.307,6.29 -12.626,7.57 -11.823,8.77 -10.907,9.88 -9.886,10.91 -8.768,11.82 -7.568,12.63 -6.294,13.31 -4.959,13.86 -3.577,14.28 -2.16,14.56 -0.722,14.7 0,2700 0.722,14.7 2.16,14.56 3.577,14.28 4.959,13.86 6.294,13.31 7.568,12.63 8.768,11.82 9.886,10.91 10.907,9.88 11.823,8.77 12.626,7.57 13.307,6.29 13.86,4.96 14.279,3.58 14.561,2.16 14.703,0.72 2700,0 14.703,-0.72 0,0"
       id="path50"
       style="fill:#ffffff;fill-opacity:1;stroke:#ffffff;stroke-opacity:1" />
    <use
       height="100%"
       width="100%"
       xlink:href="#logo-F.Cu_pad-13"
       x="83200"
       y="-98600"
       id="use52"
       style="fill:#ffffff;fill-opacity:1;stroke:#ffffff;stroke-opacity:1" />
    <use
       height="100%"
       width="100%"
       xlink:href="#logo-F.Cu_pad-13"
       x="85100"
       y="-98300"
       id="use54"
       style="fill:#ffffff;fill-opacity:1;stroke:#ffffff;stroke-opacity:1" />
    <use
       height="100%"
       width="100%"
       xlink:href="#logo-F.Cu_pad-13"
       x="85700"
       y="-98800"
       id="use56"
       style="fill:#ffffff;fill-opacity:1;stroke:#ffffff;stroke-opacity:1" />
    <use
       height="100%"
       width="100%"
       xlink:href="#logo-F.Cu_pad-13"
       x="85452.297"
       y="-100700"
       id="use58"
       style="fill:#ffffff;fill-opacity:1;stroke:#ffffff;stroke-opacity:1" />
    <use
       height="100%"
       width="100%"
       xlink:href="#logo-F.Cu_pad-13"
       x="77947.703"
       y="-103900"
       id="use60"
       style="fill:#ffffff;fill-opacity:1;stroke:#ffffff;stroke-opacity:1" />
    <use
       height="100%"
       width="100%"
       xlink:href="#logo-F.Cu_pad-13"
       x="80200"
       y="-105952.3"
       id="use62"
       style="fill:#ffffff;fill-opacity:1;stroke:#ffffff;stroke-opacity:1" />
    <use
       height="100%"
       width="100%"
       xlink:href="#logo-F.Cu_pad-13"
       x="78300"
       y="-106300"
       id="use64"
       style="fill:#ffffff;fill-opacity:1;stroke:#ffffff;stroke-opacity:1" />
    <use
       height="100%"
       width="100%"
       xlink:href="#logo-F.Cu_pad-13"
       x="77700"
       y="-105800"
       id="use66"
       style="fill:#ffffff;fill-opacity:1;stroke:#ffffff;stroke-opacity:1" />
    <path
       inkscape:connector-curvature="0"
       d="m 83487.6,-99912.4 -489.66,0 m -650.24,460.1 852.3,852.3 m 287.6,-1312.4 1612.4,1612.4 m 600,-500 -1612.4,-1612.4 0,-589.66 m 412.4,-650.24 952.3,952.3 m -6139.9,-2247.7 -360.1,0 m -52.3,0 -952.3,-952.3 m 3104.6,-787.6 0,-360.1 m 0,-52.3 -852.3,-852.3 m -2500,152.3 1612.4,1612.4 0,589.66 m 700,-1089.66 -100,0 -1612.4,-1612.4 m 2102.06,1612.4 -389.66,0 m 2335.3,4775.2 0,460.1"
       id="path68"
       style="fill:none;fill-opacity:1;stroke:#ffffff;stroke-width:250;stroke-opacity:1" />
  </g>
</svg>
