<svg xmlns="http://www.w3.org/2000/svg" version="1.1" xmlns:xlink="http://www.w3.org/1999/xlink" stroke-linecap="round" stroke-linejoin="round" stroke-width="0" fill-rule="evenodd" width="8.75mm" height="8.75mm" viewBox="77325 -106675 8750 8750" id="logo-F.Cu">
  <defs>
    <rect x="-173.99" y="-574.04" width="347.98" height="1148.08" rx="173.99" ry="173.99" id="logo-F.Cu_pad-11"/>
    <rect x="-574.04" y="-173.99" width="1148.08" height="347.98" rx="173.99" ry="173.99" id="logo-F.Cu_pad-12"/>
    <circle cx="0" cy="0" r="375" id="logo-F.Cu_pad-13"/>
  </defs>
  <g transform="translate(0,-204600) scale(1,-1)" fill="currentColor" stroke="currentColor">
    <use xlink:href="#logo-F.Cu_pad-11" x="82997.94" y="-99912.4"/>
    <use xlink:href="#logo-F.Cu_pad-11" x="82347.7" y="-99912.4"/>
    <use xlink:href="#logo-F.Cu_pad-11" x="81700" y="-99912.4"/>
    <use xlink:href="#logo-F.Cu_pad-11" x="81052.3" y="-99912.4"/>
    <use xlink:href="#logo-F.Cu_pad-11" x="80402.06" y="-99912.4"/>
    <use xlink:href="#logo-F.Cu_pad-12" x="79312.4" y="-101002.06"/>
    <use xlink:href="#logo-F.Cu_pad-12" x="79312.4" y="-101652.3"/>
    <use xlink:href="#logo-F.Cu_pad-12" x="79312.4" y="-102300"/>
    <use xlink:href="#logo-F.Cu_pad-12" x="79312.4" y="-102947.7"/>
    <use xlink:href="#logo-F.Cu_pad-12" x="79312.4" y="-103597.94"/>
    <use xlink:href="#logo-F.Cu_pad-11" x="80402.06" y="-104687.6"/>
    <use xlink:href="#logo-F.Cu_pad-11" x="81052.3" y="-104687.6"/>
    <use xlink:href="#logo-F.Cu_pad-11" x="81700" y="-104687.6"/>
    <use xlink:href="#logo-F.Cu_pad-11" x="82347.7" y="-104687.6"/>
    <use xlink:href="#logo-F.Cu_pad-11" x="82997.94" y="-104687.6"/>
    <use xlink:href="#logo-F.Cu_pad-12" x="84087.6" y="-103597.94"/>
    <use xlink:href="#logo-F.Cu_pad-12" x="84087.6" y="-102947.7"/>
    <use xlink:href="#logo-F.Cu_pad-12" x="84087.6" y="-102300"/>
    <use xlink:href="#logo-F.Cu_pad-12" x="84087.6" y="-101652.3"/>
    <use xlink:href="#logo-F.Cu_pad-12" x="84087.6" y="-101002.06"/>
    <path d="M 83064.703 -100800.722 83079.264 -100802.882 83093.543 -100806.459 83107.403 -100811.418 83120.71 -100817.712 83133.336 -100825.28 83145.159 -100834.048 83156.066 -100843.934 83165.952 -100854.841 83174.72 -100866.664 83182.288 -100879.29 83188.582 -100892.597 83193.541 -100906.457 83197.118 -100920.736 83199.278 -100935.297 83200 -100950 83200 -103650 83199.278 -103664.703 83197.118 -103679.264 83193.541 -103693.543 83188.582 -103707.403 83182.288 -103720.71 83174.72 -103733.336 83165.952 -103745.159 83156.066 -103756.066 83145.159 -103765.952 83133.336 -103774.72 83120.71 -103782.288 83107.403 -103788.582 83093.543 -103793.541 83079.264 -103797.118 83064.703 -103799.278 83050 -103800 80350 -103800 80335.297 -103799.278 80320.736 -103797.118 80306.457 -103793.541 80292.597 -103788.582 80279.29 -103782.288 80266.664 -103774.72 80254.841 -103765.952 80243.934 -103756.066 80234.048 -103745.159 80225.28 -103733.336 80217.712 -103720.71 80211.418 -103707.403 80206.459 -103693.543 80202.882 -103679.264 80200.722 -103664.703 80200 -103650 80200 -100950 80200.722 -100935.297 80202.882 -100920.736 80206.459 -100906.457 80211.418 -100892.597 80217.712 -100879.29 80225.28 -100866.664 80234.048 -100854.841 80243.934 -100843.934 80254.841 -100834.048 80266.664 -100825.28 80279.29 -100817.712 80292.597 -100811.418 80306.457 -100806.459 80320.736 -100802.882 80335.297 -100800.722 80350 -100800 83050 -100800 83064.703 -100800.722 83064.703 -100800.722"/>
    <use xlink:href="#logo-F.Cu_pad-13" x="83200" y="-98600"/>
    <use xlink:href="#logo-F.Cu_pad-13" x="85100" y="-98300"/>
    <use xlink:href="#logo-F.Cu_pad-13" x="85700" y="-98800"/>
    <use xlink:href="#logo-F.Cu_pad-13" x="85452.3" y="-100700"/>
    <use xlink:href="#logo-F.Cu_pad-13" x="77947.7" y="-103900"/>
    <use xlink:href="#logo-F.Cu_pad-13" x="80200" y="-105952.3"/>
    <use xlink:href="#logo-F.Cu_pad-13" x="78300" y="-106300"/>
    <use xlink:href="#logo-F.Cu_pad-13" x="77700" y="-105800"/>
    <path d="M 82347.7 -99452.3 83200 -98600 M 82997.94 -99912.4 83387.6 -99912.4 M 83487.6 -99912.4 85100 -98300 M 85700 -98800 84087.6 -100412.4 84087.6 -101002.06 M 84500 -101652.3 85452.3 -100700 M 84200 -103710.34 84087.6 -103597.94 M 79312.4 -102947.7 78952.3 -102947.7 M 78900 -102947.7 77947.7 -103900 M 81052.3 -104687.6 81052.3 -105047.7 M 81052.3 -105100 80200 -105952.3 M 77700 -105800 79312.4 -104187.6 79312.4 -103597.94 M 80012.4 -104687.6 79912.4 -104687.6 78300 -106300 M 80402.06 -104687.6 80012.4 -104687.6 M 82347.7 -99912.4 82347.7 -99452.3" fill="none" stroke-width="250"/>
  </g>
</svg>
