G04 #@! TF.FileFunction,Copper,L1,Top,Signal*
%FSLAX46Y46*%
G04 Gerber Fmt 4.6, Leading zero omitted, Abs format (unit mm)*
G04 Created by KiCad (PCBNEW 4.1.0-alpha+201608131231+7028~46~ubuntu16.04.1-product) date Wed Aug 17 11:50:54 2016*
%MOMM*%
%LPD*%
G01*
G04 APERTURE LIST*
%ADD10C,0.100000*%
%ADD11O,0.347980X1.148080*%
%ADD12O,1.148080X0.347980*%
%ADD13C,0.750000*%
%ADD14C,0.250000*%
G04 APERTURE END LIST*
D10*
D11*
X82997940Y-99912400D03*
X82347700Y-99912400D03*
X81700000Y-99912400D03*
X81052300Y-99912400D03*
X80402060Y-99912400D03*
D12*
X79312400Y-101002060D03*
X79312400Y-101652300D03*
X79312400Y-102300000D03*
X79312400Y-102947700D03*
X79312400Y-103597940D03*
D11*
X80402060Y-104687600D03*
X81052300Y-104687600D03*
X81700000Y-104687600D03*
X82347700Y-104687600D03*
X82997940Y-104687600D03*
D12*
X84087600Y-103597940D03*
X84087600Y-102947700D03*
X84087600Y-102300000D03*
X84087600Y-101652300D03*
X84087600Y-101002060D03*
D10*
G36*
X83064703Y-100800722D02*
X83079264Y-100802882D01*
X83093543Y-100806459D01*
X83107403Y-100811418D01*
X83120710Y-100817712D01*
X83133336Y-100825280D01*
X83145159Y-100834048D01*
X83156066Y-100843934D01*
X83165952Y-100854841D01*
X83174720Y-100866664D01*
X83182288Y-100879290D01*
X83188582Y-100892597D01*
X83193541Y-100906457D01*
X83197118Y-100920736D01*
X83199278Y-100935297D01*
X83200000Y-100950000D01*
X83200000Y-103650000D01*
X83199278Y-103664703D01*
X83197118Y-103679264D01*
X83193541Y-103693543D01*
X83188582Y-103707403D01*
X83182288Y-103720710D01*
X83174720Y-103733336D01*
X83165952Y-103745159D01*
X83156066Y-103756066D01*
X83145159Y-103765952D01*
X83133336Y-103774720D01*
X83120710Y-103782288D01*
X83107403Y-103788582D01*
X83093543Y-103793541D01*
X83079264Y-103797118D01*
X83064703Y-103799278D01*
X83050000Y-103800000D01*
X80350000Y-103800000D01*
X80335297Y-103799278D01*
X80320736Y-103797118D01*
X80306457Y-103793541D01*
X80292597Y-103788582D01*
X80279290Y-103782288D01*
X80266664Y-103774720D01*
X80254841Y-103765952D01*
X80243934Y-103756066D01*
X80234048Y-103745159D01*
X80225280Y-103733336D01*
X80217712Y-103720710D01*
X80211418Y-103707403D01*
X80206459Y-103693543D01*
X80202882Y-103679264D01*
X80200722Y-103664703D01*
X80200000Y-103650000D01*
X80200000Y-100950000D01*
X80200722Y-100935297D01*
X80202882Y-100920736D01*
X80206459Y-100906457D01*
X80211418Y-100892597D01*
X80217712Y-100879290D01*
X80225280Y-100866664D01*
X80234048Y-100854841D01*
X80243934Y-100843934D01*
X80254841Y-100834048D01*
X80266664Y-100825280D01*
X80279290Y-100817712D01*
X80292597Y-100811418D01*
X80306457Y-100806459D01*
X80320736Y-100802882D01*
X80335297Y-100800722D01*
X80350000Y-100800000D01*
X83050000Y-100800000D01*
X83064703Y-100800722D01*
X83064703Y-100800722D01*
G37*
D13*
X83200000Y-98600000D03*
X85000000Y-98300000D03*
X85700000Y-98900000D03*
X85452300Y-100700000D03*
X77947700Y-103900000D03*
X80200000Y-105952300D03*
X78400000Y-106300000D03*
X77700000Y-105700000D03*
D14*
X82997940Y-99912400D02*
X83387600Y-99912400D01*
X83387600Y-99912400D02*
X83400000Y-99900000D01*
X84087600Y-101002060D02*
X84087600Y-100512400D01*
X84087600Y-100512400D02*
X84100000Y-100500000D01*
X79312400Y-103597940D02*
X79312400Y-104087600D01*
X80402060Y-104687600D02*
X80012400Y-104687600D01*
X82347700Y-99452300D02*
X83200000Y-98600000D01*
X83400000Y-99900000D02*
X85012400Y-98287600D01*
X85712400Y-98887600D02*
X84100000Y-100500000D01*
X84500000Y-101652300D02*
X85452300Y-100700000D01*
X79312400Y-102947700D02*
X78952300Y-102947700D01*
X78900000Y-102947700D02*
X77947700Y-103900000D01*
X81052300Y-104687600D02*
X81052300Y-105047700D01*
X81052300Y-105100000D02*
X80200000Y-105952300D01*
X77700000Y-105700000D02*
X79312400Y-104087600D01*
X80012400Y-104687600D02*
X78400000Y-106300000D01*
X82347700Y-99912400D02*
X82347700Y-99452300D01*
M02*
